HIERARCHY
ROOT Hips
{
  OFFSET -318.666 97.7961 -295.934
  CHANNELS 6 Xposition Yposition Zposition Zrotation Xrotation Yrotation
  JOINT ToSpine
  {
    OFFSET -0.0105055 1.38907 -7.13956
    CHANNELS 3 Zrotation Xrotation Yrotation
    JOINT Spine
    {
      OFFSET 0.0105055 10 1
      CHANNELS 3 Zrotation Xrotation Yrotation
      JOINT Spine1
      {
        OFFSET 0 12 1.60637
        CHANNELS 3 Zrotation Xrotation Yrotation
        JOINT Neck
        {
          OFFSET 0 27 2.26658
          CHANNELS 3 Zrotation Xrotation Yrotation
          JOINT Head
          {
            OFFSET 0 9 2.12705
            CHANNELS 3 Zrotation Xrotation Yrotation
            End Site
            {
              OFFSET 0 11 2
            }
          }
        }
        JOINT LeftShoulder
        {
          OFFSET 8 19.6109 2.86452
          CHANNELS 3 Zrotation Xrotation Yrotation
          JOINT LeftArm
          {
            OFFSET 12 1 0.681055
            CHANNELS 3 Zrotation Xrotation Yrotation
            JOINT LeftForeArm
            {
              OFFSET 19 0 -1.52608
              CHANNELS 3 Zrotation Xrotation Yrotation
              JOINT LeftHand
              {
                OFFSET 23 0 0
                CHANNELS 3 Zrotation Xrotation Yrotation
                End Site
                {
                  OFFSET 10 0 0
                }
              }
            }
          }
        }
        JOINT RightShoulder
        {
          OFFSET -8 19.6109 2.86452
          CHANNELS 3 Zrotation Xrotation Yrotation
          JOINT RightArm
          {
            OFFSET -12 1 0.681055
            CHANNELS 3 Zrotation Xrotation Yrotation
            JOINT RightForeArm
            {
              OFFSET -19 0 -1.52608
              CHANNELS 3 Zrotation Xrotation Yrotation
              JOINT RightHand
              {
                OFFSET -23 0 0
                CHANNELS 3 Zrotation Xrotation Yrotation
                End Site
                {
                  OFFSET -10 0 0
                }
              }
            }
          }
        }
      }
    }
  }
  JOINT LeftUpLeg
  {
    OFFSET 9 -7.17245 0
    CHANNELS 3 Zrotation Xrotation Yrotation
    JOINT LeftLeg
    {
      OFFSET 0 -44.1113 0
      CHANNELS 3 Zrotation Xrotation Yrotation
      JOINT LeftFoot
      {
        OFFSET 0 -36.1829 0
        CHANNELS 3 Zrotation Xrotation Yrotation
        JOINT LeftToeBase
        {
          OFFSET 0 -4.84184 13
          CHANNELS 3 Zrotation Xrotation Yrotation
          End Site
          {
            OFFSET 0 1 6
          }
        }
      }
    }
  }
  JOINT RightUpLeg
  {
    OFFSET -9 -7.17245 0
    CHANNELS 3 Zrotation Xrotation Yrotation
    JOINT RightLeg
    {
      OFFSET 0 -44.0551 0
      CHANNELS 3 Zrotation Xrotation Yrotation
      JOINT RightFoot
      {
        OFFSET 0 -36.1469 0
        CHANNELS 3 Zrotation Xrotation Yrotation
        JOINT RightToeBase
        {
          OFFSET 0 -4.92256 13
          CHANNELS 3 Zrotation Xrotation Yrotation
          End Site
          {
            OFFSET 0 1 6
          }
        }
      }
    }
  }
}
MOTION
Frames:	8
Frame Time:	0.0333333
-245.151 94.8025 -212.964 -0.50498 -5.93831 54.981 0 0 0 2.82081 5.31695 -3.57281 4.82109 5.40805 -5.06081 9.19891 -10.472 -0.696962 -3.73025 -2.30634 1.99436 -29.9274 4.21427 -8.1714 -37.0297 29.9468 -22.7935 -5.55101 -9.07621 -5.71877 -11.8826 0.252336 -2.42436 26.4827 5.85406 14.3091 51.6568 4.98186 -8.96031 1.29609 0.444373 9.92002 2.71001 0.0931901 3.93822 12.8516 12.6954 6.50529 -3.69503e-007 45.6679 -19.4373 13.45 8.10656 -0.957464 1.19765 -2.09423 -4.79437 8.42895 -16.0544 -7.17227 0.0253741 26.8696 -4.30984 -23.9238 -1.88047 -0.398434 3.48611 -12.7575 -5.69585 
-243.076 95.4615 -210.554 -0.546192 -5.8143 56.2513 0 0 0 4.41972 5.46775 -2.97497 2.90308 5.60262 -3.91598 9.03773 -10.8096 -1.59894 -4.06581 -2.6473 1.12739 -29.5833 4.14684 -8.09414 -38.4112 27.9304 -20.3438 -5.14759 -9.79423 -5.61369 -12.8358 0.444494 -3.95006 26.1364 5.48996 13.3861 52.712 8.49867 -7.02867 4.09601 -9.46506 10.5373 5.32572 0.346381 7.43714 13.2573 5.10645 4.89799 5.69558e-007 55.9091 -14.5412 13.9991 5.43978 -0.668374 1.14652 -10.3551 -3.03837 8.41524 -13.3287 -8.13493 0.291359 25.7852 -4.84357 -22.0524 -3.9452 -0.769032 3.15641 -11.372 -4.64095 
-240.954 96.0895 -208.219 0.172589 -5.43666 57.8348 0 0 0 5.14307 6.06285 -2.62063 1.35637 5.23334 -3.10653 8.30814 -8.98356 -2.40582 -4.11278 -4.32179 0.276624 -30.2807 4.08807 -7.71581 -39.1491 26.0334 -16.9929 -4.5758 -10.8651 -7.406 -13.5959 0.312389 -2.62011 25.9889 5.65866 13.9738 51.6592 8.71375 -5.70266 2.47411 -3.53533 12.0762 4.1042 0.0973605 2.71669 12.1727 -1.62988 3.30724 -1.59807e-007 62.5089 -9.80043 16.7131 0.528878 -0.0776889 1.03503 -14.4798 -0.552308 7.82598 -9.01852 -8.03313 1.81962 22.0772 -7.59699 -23.4624 -4.82496 -1.00251 3.30722 -12.0851 -3.88984 
-238.887 96.8354 -206.104 0.943933 -4.70595 57.8263 0 0 0 6.08728 7.20162 -1.71417 -1.13727 4.57739 -1.42641 8.41566 -7.40374 -3.39641 -4.13927 -4.80987 -0.567636 -30.8073 4.02592 -7.39088 -39.4094 24.2202 -14.0106 -4.60641 -13.7443 -8.95187 -12.4521 0.189157 -1.73375 26.2219 5.85265 14.441 50.3427 9.90146 -3.7185 2.76319 -4.86698 13.0289 4.88964 0.105703 2.47531 9.93295 -7.45741 2.98712 -5.6782e-007 64.3908 -5.59382 17.6307 -2.30887 0.358112 1.28644 -15.0889 -2.4849 6.86636 -4.59377 -5.72757 3.68343 17.4762 -9.9843 -22.7771 -5.01167 -1.01011 3.0566 -11.1326 -2.91505 
-236.476 97.4209 -203.811 1.53153 -4.06317 57.3893 0 0 0 6.61084 7.53055 -0.597356 -2.671 4.28923 0.260551 8.24036 -4.4199 -4.07031 -3.67756 -6.261 -1.21408 -31.1022 3.98336 -7.19191 -39.8821 21.2215 -10.9097 -4.1905 -14.3472 -9.73015 -9.39674 0.0672898 -0.818733 25.846 5.89852 14.7807 49.2205 10.7958 -1.93756 2.9794 -5.81844 13.7605 4.89254 0.185207 4.33316 7.79088 -12.368 2.78999 -3.87898e-007 63.1498 -4.32902 14.6101 -5.86556 0.752566 1.53179 -14.221 -4.93434 6.59157 -0.837302 -4.89807 3.41641 14.4025 -11.0662 -19.7005 -5.56772 -0.96748 2.6151 -9.62018 -1.14086 
-234.2 97.2765 -201.671 1.87104 -2.50052 56.306 0 0 0 7.0362 8.24368 0.647982 -5.5662 2.96355 2.13462 8.10086 -2.94677 -4.80589 -3.79942 -6.29201 -1.86744 -30.986 3.90634 -7.01859 -40.3712 19.6351 -7.69472 -4.53918 -17.1915 -11.7407 -9.63101 0.134093 -1.5916 25.353 5.77433 14.6658 48.0849 11.5295 0.292361 2.39299 -4.41624 14.8658 4.14557 0.155678 4.29935 4.8506 -17.9738 3.11527 5.76239e-008 59.8085 -1.97433 18.4321 -6.62519 1.07612 1.39247 -14.31 -3.71625 5.68181 2.53039 -5.23148 3.26132 10.4496 -7.52399 -27.3244 -2.90703 -0.706768 4.10163 -15.6218 -6.93733 
-231.579 97.1724 -199.513 1.8317 -2.38579 54.801 0 0 0 9.17545 8.32227 1.45139 -7.78964 3.1185 3.65503 6.94408 -1.66867 -4.75891 -2.65082 -6.85469 -2.28775 -31.2932 3.77757 -6.5906 -40.1377 18.168 -5.09949 -4.14951 -16.0753 -13.7031 -10.6112 0.151103 -1.627 24.3459 5.70367 15.0028 46.0712 13.3333 4.13681 3.12803 -6.21418 14.5532 3.74312 0.132467 4.05221 3.38784 -21.2842 3.64038 1.89055e-008 52.4597 -0.676002 20.2722 -4.50996 0.806682 1.48007 -17.9971 -3.11972 5.75952 4.17854 -6.03288 2.61128 11.7827 -6.40257 -25.7298 -4.97067 -1.13591 3.87214 -14.4823 -4.93108 
-228.948 96.684 -197.328 2.03911 -1.81661 53.0456 0 0 0 10.3127 8.19676 2.32893 -10.0006 3.69031 5.03329 6.08548 -0.942834 -4.62918 -2.45241 -6.92619 -2.40933 -32.5116 3.80519 -6.34492 -38.9883 17.5046 -2.78888 -4.30495 -16.4077 -15.4259 -10.5819 0.148308 -1.60135 23.9217 5.7964 15.5463 43.0322 14.986 7.68302 2.26346 -3.69184 15.6433 3.02899 0.134697 5.09128 1.749 -23.8479 4.44142 1.41793e-008 43.499 -1.47649 18.3002 -2.72823 0.43952 1.37298 -17.7878 -1.967 5.46433 7.28797 -6.41898 2.61406 9.18236 -4.84159 -33.1038 -2.95791 -0.879266 5.08802 -20.2857 -7.12948 
